<?xml version="1.0" standalone="no"?>
<!DOCTYPE svg PUBLIC "-//W3C//DTD SVG 20010904//EN"
 "http://www.w3.org/TR/2001/REC-SVG-20010904/DTD/svg10.dtd">
<svg version="1.0" xmlns="http://www.w3.org/2000/svg"
 width="134.000000pt" height="153.000000pt" viewBox="0 0 134.000000 153.000000"
 preserveAspectRatio="xMidYMid meet">
<metadata>
Created by potrace 1.16, written by Peter Selinger 2001-2019
</metadata>
<g transform="translate(0.000000,153.000000) scale(0.100000,-0.100000)"
fill="#000000" stroke="none">
<path d="M493 1511 c-134 -46 -256 -158 -336 -309 -73 -139 -89 -213 -94 -439
-6 -230 6 -298 72 -431 74 -147 218 -270 361 -307 87 -23 236 -20 315 6 155
51 264 147 345 305 65 125 77 197 72 426 -6 227 -21 300 -96 441 -117 220
-281 328 -494 326 -61 0 -111 -6 -145 -18z m228 -1 c181 -34 347 -187 432
-400 41 -103 44 -135 7 -70 -64 114 -179 205 -319 253 -81 28 -91 29 -215 24
-146 -5 -188 -16 -295 -78 -75 -43 -142 -108 -196 -189 -39 -59 -39 -46 3 60
64 163 172 290 302 354 108 52 181 65 281 46z m89 -226 c154 -45 282 -150 350
-287 22 -44 40 -85 40 -92 0 -8 -26 12 -57 43 -68 68 -148 112 -258 144 -69
20 -102 23 -240 23 -181 0 -238 -12 -365 -72 -49 -24 -94 -55 -132 -94 -32
-31 -58 -52 -58 -44 0 7 18 48 40 92 81 162 245 277 435 307 52 8 189 -3 245
-20z m-30 -184 c142 -23 265 -76 342 -148 44 -41 88 -106 88 -130 0 -5 -26 4
-58 20 -32 16 -102 39 -157 50 -88 20 -130 22 -350 22 -220 0 -262 -2 -350
-22 -55 -11 -125 -34 -157 -50 -32 -16 -58 -25 -58 -20 0 46 103 159 181 198
149 76 347 107 519 80z m171 -214 c191 -35 295 -92 263 -143 -76 -122 -606
-174 -952 -93 -118 28 -192 70 -192 110 0 57 146 114 360 140 102 12 427 4
521 -14z m-656 -259 c88 -19 130 -21 350 -21 220 0 262 2 350 21 55 12 125 35
157 51 32 16 58 25 58 20 0 -24 -44 -89 -88 -130 -223 -209 -731 -209 -954 0
-44 41 -88 106 -88 130 0 5 26 -4 58 -20 32 -16 102 -39 157 -51z m-25 -144
c131 -64 198 -78 375 -78 154 0 164 1 262 33 115 37 202 89 256 152 48 57 47
33 -2 -67 -68 -134 -187 -235 -336 -285 -100 -33 -260 -33 -360 0 -149 50
-268 151 -336 285 -21 44 -39 85 -39 92 0 8 26 -12 58 -44 33 -33 84 -70 122
-88z m-36 -121 c115 -109 249 -162 407 -162 247 1 453 133 552 355 l18 40 -6
-52 c-20 -184 -154 -376 -322 -461 -160 -79 -312 -80 -472 -1 -171 84 -303
271 -327 462 l-7 52 43 -83 c32 -61 61 -99 114 -150z"/>
</g>
</svg>
