<?xml version="1.0" standalone="no"?>
<!DOCTYPE svg PUBLIC "-//W3C//DTD SVG 20010904//EN"
 "http://www.w3.org/TR/2001/REC-SVG-20010904/DTD/svg10.dtd">
<svg version="1.0" xmlns="http://www.w3.org/2000/svg"
 width="1280.000000pt" height="1237.000000pt" viewBox="0 0 1280.000000 1237.000000"
 preserveAspectRatio="xMidYMid meet">
<g transform="translate(0.000000,1237.000000) scale(0.100000,-0.100000)"
fill="#000000" stroke="none">
<path d="M6018 12365 c-2 -3 -42 -12 -89 -20 -111 -21 -222 -52 -284 -80 -97
-43 -166 -135 -185 -247 -12 -68 -11 -79 21 -288 9 -58 8 -97 -1 -172 -11 -83
-11 -115 3 -227 18 -139 62 -296 100 -351 36 -55 75 -71 186 -79 55 -3 103
-10 107 -14 14 -14 17 -134 5 -202 -22 -127 -36 -153 -137 -257 -183 -189
-253 -336 -304 -642 -59 -351 -133 -908 -165 -1241 -9 -93 -18 -180 -21 -193
-3 -17 -32 -36 -117 -78 -143 -72 -382 -208 -518 -296 -58 -37 -113 -68 -122
-68 -17 0 -184 149 -283 251 -156 163 -256 287 -429 534 -248 354 -442 543
-772 753 -352 224 -721 335 -1158 349 -254 8 -443 -13 -677 -73 l-97 -26 -103
21 c-218 43 -319 53 -621 58 -189 4 -302 2 -308 -4 -7 -7 29 -41 103 -99 128
-101 390 -322 400 -337 9 -14 15 -64 34 -282 13 -143 16 -308 14 -805 -1 -745
13 -1060 66 -1470 19 -148 50 -215 137 -296 156 -145 351 -169 568 -69 54 25
117 47 141 51 59 9 100 36 125 81 17 32 21 62 26 198 10 269 14 284 142 640
25 72 61 186 78 254 l32 123 160 74 c126 59 162 71 171 61 7 -6 39 -60 72
-119 121 -219 214 -503 247 -756 17 -122 34 -688 35 -1104 0 -391 50 -647 181
-927 22 -47 36 -88 31 -93 -5 -5 -85 -24 -178 -43 -416 -85 -799 -216 -1199
-410 -257 -124 -440 -263 -489 -371 -38 -82 -50 -167 -36 -245 28 -156 170
-667 267 -964 112 -342 282 -799 355 -955 124 -265 437 -525 758 -630 89 -29
231 -60 276 -60 l24 0 0 356 0 356 -138 -2 c-75 -1 -143 -2 -149 -1 -7 0 -24
23 -37 49 -56 111 -167 210 -286 256 -51 20 -85 48 -106 89 -8 15 -28 127 -45
250 -35 262 -86 564 -129 772 -27 126 -30 156 -21 187 15 47 69 94 118 102
168 25 366 60 458 82 61 14 157 30 215 36 199 18 392 49 528 84 236 60 460
143 584 215 36 21 72 39 78 39 6 0 29 -14 51 -32 22 -17 74 -54 117 -82 95
-63 150 -130 232 -284 130 -244 231 -422 312 -552 375 -598 680 -1223 948
-1940 61 -163 62 -166 58 -250 -5 -109 -31 -166 -127 -280 -85 -101 -181 -243
-244 -360 -44 -82 -117 -249 -117 -268 0 -14 772 -24 781 -10 4 6 10 63 14
127 4 64 13 145 21 180 20 88 77 192 133 242 25 23 61 56 80 73 53 48 84 126
84 212 0 70 -2 76 -93 265 -135 280 -153 322 -193 444 -47 144 -72 245 -92
380 -21 137 -72 351 -168 705 -95 349 -154 621 -241 1115 -20 110 -41 228 -48
263 -7 38 -8 66 -2 72 5 5 62 2 144 -10 374 -52 975 -74 1355 -51 344 21 720
72 1083 147 68 14 133 24 144 22 18 -3 26 -29 73 -238 112 -500 233 -917 354
-1222 26 -68 51 -142 55 -164 9 -65 -9 -136 -74 -283 -129 -293 -303 -556
-714 -1081 -150 -192 -225 -297 -310 -437 -30 -51 -82 -128 -115 -170 -98
-130 -199 -291 -272 -436 -38 -76 -69 -145 -69 -153 0 -11 26 -14 148 -14 81
0 263 -5 405 -11 142 -7 260 -9 263 -6 4 3 13 82 20 174 20 240 18 233 85 265
84 41 147 115 193 229 48 116 168 357 230 463 222 374 560 751 947 1057 192
152 200 160 225 213 34 73 31 119 -26 430 -61 338 -65 378 -50 506 26 225 102
403 248 583 61 75 178 177 202 177 8 0 38 -33 67 -73 168 -236 408 -476 648
-647 274 -196 715 -585 872 -769 81 -95 145 -201 216 -356 87 -190 101 -228
166 -437 34 -109 88 -285 120 -390 129 -418 145 -484 145 -593 0 -123 -21
-181 -111 -306 -81 -113 -162 -256 -218 -385 -26 -58 -45 -107 -43 -108 1 -2
174 -6 384 -9 l381 -7 6 83 c4 45 7 135 7 200 0 133 -10 113 100 199 36 29 65
62 83 98 44 85 36 139 -68 475 -47 154 -142 476 -211 715 -69 239 -139 480
-156 535 -82 270 -90 330 -86 609 3 200 2 213 -18 251 -12 22 -93 130 -179
240 -196 249 -260 345 -340 510 -92 190 -146 362 -182 573 -13 80 -17 188 -18
622 -1 289 -5 557 -9 595 -42 417 -83 571 -227 855 -80 158 -169 296 -281 434
-46 56 -77 104 -74 112 10 27 173 12 296 -28 111 -35 200 -87 272 -158 58 -58
75 -85 142 -221 118 -243 198 -500 237 -764 63 -438 100 -935 117 -1594 l7
-264 415 2 c228 1 464 4 523 8 l109 6 -6 26 c-3 14 -12 130 -21 256 -39 575
-122 1348 -170 1592 -67 331 -224 661 -456 955 -81 103 -180 194 -299 273
-258 173 -635 263 -980 235 -112 -9 -173 -20 -360 -61 -55 -12 -57 -11 -285
59 -422 130 -749 220 -885 243 -114 19 -172 23 -380 23 -263 1 -334 -6 -555
-54 -303 -67 -836 -155 -893 -148 -24 3 -29 17 -142 463 -124 492 -137 535
-210 720 -94 236 -117 338 -150 664 -25 239 -46 341 -122 595 -78 262 -131
400 -243 636 -51 107 -99 220 -106 250 -23 99 -16 210 25 360 71 266 86 485
46 679 -45 221 -115 340 -239 405 -104 54 -328 106 -353 81z"/>
</g>
</svg>
